<svg width="500" height="400" xmlns="http://www.w3.org/2000/svg">
  <!-- Background -->
  <rect width="500" height="400" fill="#f8f9fa" rx="10"/>
  
  <!-- Dashboard Header -->
  <rect x="50" y="30" width="400" height="50" fill="#f0f0f0" rx="5"/>
  <text x="130" y="60" font-family="Arial, sans-serif" font-size="20" fill="#0d6efd" font-weight="bold">Inventory Dashboard</text>
  <circle cx="400" cy="55" r="15" fill="#0d6efd"/>
  <text x="400" y="60" font-family="Arial, sans-serif" font-size="14" text-anchor="middle" fill="white">?</text>
  
  <!-- Stats Cards -->
  <rect x="50" y="100" width="120" height="90" fill="white" stroke="#dee2e6" stroke-width="1" rx="5"/>
  <text x="110" y="125" font-family="Arial, sans-serif" font-size="12" text-anchor="middle" fill="#6c757d">TOTAL ITEMS</text>
  <text x="110" y="155" font-family="Arial, sans-serif" font-size="24" text-anchor="middle" fill="#212529" font-weight="bold">1,234</text>
  <text x="110" y="175" font-family="Arial, sans-serif" font-size="10" text-anchor="middle" fill="#28a745">↑ 12% vs last month</text>
  
  <rect x="190" y="100" width="120" height="90" fill="white" stroke="#dee2e6" stroke-width="1" rx="5"/>
  <text x="250" y="125" font-family="Arial, sans-serif" font-size="12" text-anchor="middle" fill="#6c757d">LOW STOCK</text>
  <text x="250" y="155" font-family="Arial, sans-serif" font-size="24" text-anchor="middle" fill="#212529" font-weight="bold">42</text>
  <text x="250" y="175" font-family="Arial, sans-serif" font-size="10" text-anchor="middle" fill="#dc3545">↑ 5% vs last month</text>
  
  <rect x="330" y="100" width="120" height="90" fill="white" stroke="#dee2e6" stroke-width="1" rx="5"/>
  <text x="390" y="125" font-family="Arial, sans-serif" font-size="12" text-anchor="middle" fill="#6c757d">CATEGORIES</text>
  <text x="390" y="155" font-family="Arial, sans-serif" font-size="24" text-anchor="middle" fill="#212529" font-weight="bold">18</text>
  <text x="390" y="175" font-family="Arial, sans-serif" font-size="10" text-anchor="middle" fill="#28a745">↑ 2 new categories</text>
  
  <!-- Chart Area -->
  <rect x="50" y="210" width="400" height="160" fill="white" stroke="#dee2e6" stroke-width="1" rx="5"/>
  <text x="70" y="235" font-family="Arial, sans-serif" font-size="14" fill="#212529" font-weight="bold">Monthly Inventory Trends</text>
  
  <!-- Chart Lines -->
  <line x1="70" y1="350" x2="430" y2="350" stroke="#dee2e6" stroke-width="1"/>
  <line x1="70" y1="260" x2="70" y2="350" stroke="#dee2e6" stroke-width="1"/>
  
  <!-- X-axis labels -->
  <text x="105" y="365" font-family="Arial, sans-serif" font-size="10" text-anchor="middle" fill="#6c757d">Jan</text>
  <text x="163" y="365" font-family="Arial, sans-serif" font-size="10" text-anchor="middle" fill="#6c757d">Feb</text>
  <text x="221" y="365" font-family="Arial, sans-serif" font-size="10" text-anchor="middle" fill="#6c757d">Mar</text>
  <text x="279" y="365" font-family="Arial, sans-serif" font-size="10" text-anchor="middle" fill="#6c757d">Apr</text>
  <text x="337" y="365" font-family="Arial, sans-serif" font-size="10" text-anchor="middle" fill="#6c757d">May</text>
  <text x="395" y="365" font-family="Arial, sans-serif" font-size="10" text-anchor="middle" fill="#6c757d">Jun</text>
  
  <!-- Chart Bars -->
  <rect x="90" y="300" width="30" height="50" fill="rgba(13, 110, 253, 0.2)" stroke="#0d6efd" stroke-width="1" rx="2"/>
  <rect x="148" y="280" width="30" height="70" fill="rgba(13, 110, 253, 0.2)" stroke="#0d6efd" stroke-width="1" rx="2"/>
  <rect x="206" y="320" width="30" height="30" fill="rgba(13, 110, 253, 0.2)" stroke="#0d6efd" stroke-width="1" rx="2"/>
  <rect x="264" y="310" width="30" height="40" fill="rgba(13, 110, 253, 0.2)" stroke="#0d6efd" stroke-width="1" rx="2"/>
  <rect x="322" y="270" width="30" height="80" fill="rgba(13, 110, 253, 0.2)" stroke="#0d6efd" stroke-width="1" rx="2"/>
  <rect x="380" y="290" width="30" height="60" fill="rgba(13, 110, 253, 0.2)" stroke="#0d6efd" stroke-width="1" rx="2"/>
</svg> 