<svg xmlns="http://www.w3.org/2000/svg" width="600" height="400" viewBox="0 0 600 400">
  <rect width="600" height="400" fill="#2d3748" />
  
  <!-- Graph background -->
  <rect x="50" y="50" width="500" height="300" rx="10" fill="#1a1c23" />
  
  <!-- Grid lines -->
  <g stroke="#4a5568" stroke-width="1">
    <line x1="50" y1="100" x2="550" y2="100" />
    <line x1="50" y1="150" x2="550" y2="150" />
    <line x1="50" y1="200" x2="550" y2="200" />
    <line x1="50" y1="250" x2="550" y2="250" />
    <line x1="50" y1="300" x2="550" y2="300" />
    
    <line x1="100" y1="50" x2="100" y2="350" />
    <line x1="200" y1="50" x2="200" y2="350" />
    <line x1="300" y1="50" x2="300" y2="350" />
    <line x1="400" y1="50" x2="400" y2="350" />
    <line x1="500" y1="50" x2="500" y2="350" />
  </g>
  
  <!-- Line chart -->
  <polyline
    fill="none"
    stroke="#3182ce"
    stroke-width="4"
    points="
      50,300
      100,280
      150,250
      200,270
      250,200
      300,180
      350,150
      400,170
      450,130
      500,100
      550,90
    "
  />
  
  <!-- Data points -->
  <g>
    <circle cx="50" cy="300" r="6" fill="#3182ce" />
    <circle cx="100" cy="280" r="6" fill="#3182ce" />
    <circle cx="150" cy="250" r="6" fill="#3182ce" />
    <circle cx="200" cy="270" r="6" fill="#3182ce" />
    <circle cx="250" cy="200" r="6" fill="#3182ce" />
    <circle cx="300" cy="180" r="6" fill="#3182ce" />
    <circle cx="350" cy="150" r="6" fill="#3182ce" />
    <circle cx="400" cy="170" r="6" fill="#3182ce" />
    <circle cx="450" cy="130" r="6" fill="#3182ce" />
    <circle cx="500" cy="100" r="6" fill="#3182ce" />
    <circle cx="550" cy="90" r="6" fill="#3182ce" />
  </g>
  
  <!-- Title -->
  <text x="300" y="380" font-family="Arial, sans-serif" font-size="24" fill="#a0aec0" text-anchor="middle">Inventory Tracking</text>
</svg> 